<?xml version="1.0" encoding="UTF-8" standalone="no"?>
<!-- Created with Inkscape (http://www.inkscape.org/) -->

<svg
   width="1000mm"
   height="1000mm"
   viewBox="0 0 1000 1000"
   version="1.1"
   id="svg1"
   inkscape:version="1.4.2 (ebf0e940d0, 2025-05-08)"
   sodipodi:docname="CurrentLogo.svg"
   xml:space="preserve"
   xmlns:inkscape="http://www.inkscape.org/namespaces/inkscape"
   xmlns:sodipodi="http://sodipodi.sourceforge.net/DTD/sodipodi-0.dtd"
   xmlns:xlink="http://www.w3.org/1999/xlink"
   xmlns="http://www.w3.org/2000/svg"
   xmlns:svg="http://www.w3.org/2000/svg"><sodipodi:namedview
     id="namedview1"
     pagecolor="#ffffff"
     bordercolor="#000000"
     borderopacity="0.25"
     inkscape:showpageshadow="2"
     inkscape:pageopacity="0.0"
     inkscape:pagecheckerboard="0"
     inkscape:deskcolor="#d1d1d1"
     inkscape:document-units="cm"
     inkscape:zoom="0.38079546"
     inkscape:cx="-157.5649"
     inkscape:cy="2099.5523"
     inkscape:window-width="2560"
     inkscape:window-height="1368"
     inkscape:window-x="0"
     inkscape:window-y="0"
     inkscape:window-maximized="1"
     inkscape:current-layer="layer1"
     showguides="true"
     showgrid="true"><inkscape:grid
       id="grid7"
       units="cm"
       originx="0"
       originy="0"
       spacingx="9.9999999"
       spacingy="9.9999999"
       empcolor="#0099e5"
       empopacity="0.30196078"
       color="#0099e5"
       opacity="0.14901961"
       empspacing="5"
       enabled="true"
       visible="true" /><sodipodi:guide
       position="465.38306,2038.3421"
       orientation="0,-1"
       id="guide7"
       inkscape:locked="false" /><inkscape:page
       x="0"
       y="0"
       width="1000"
       height="1000"
       id="page9"
       margin="0"
       bleed="0" /></sodipodi:namedview><defs
     id="defs1" /><path
     id="path5"
     style="display:inline;opacity:0;fill:#ff2a2a;stroke-width:0.731941"
     d="M 4.4098317,258.56721 A 497.59661,497.59661 0 0 0 447.8207,805.00246 497.59661,497.59661 0 0 0 994.2561,361.59163 497.59661,497.59661 0 0 0 550.84513,-184.84367 497.59661,497.59661 0 0 0 4.4098317,258.56721 Z"
     inkscape:label="pathText" /><g
     inkscape:label="logo"
     inkscape:groupmode="layer"
     id="layer1"><path
       id="path4"
       style="fill:#000000;stroke-width:1.10467"
       d="m 16.312009,468.85124 c 0,0 133.380391,-9.79682 133.296941,-9.79682 C 121.67586,267.4837 309.63474,46.06473 533.70375,47.364808 L 565.84314,1.976842 C 445.71499,-7.140747 315.98235,13.637584 206.14177,98.849183 113.70178,170.56183 23.766551,291.5487 16.312009,468.85124 Z M 500.40172,57.885832 517.27951,121.55809 c 261.18525,34.02471 329.28386,209.01354 333.42146,337.18614 l 134.52366,9.84943 C 942.64945,193.98061 780.4331,94.812683 500.40172,57.885832 Z"
       sodipodi:nodetypes="ccccscccccc"
       inkscape:label="arch" /><text
       xml:space="preserve"
       style="font-size:176.389px;font-family:'Take Cover';-inkscape-font-specification:'Take Cover';text-align:start;letter-spacing:14.5521px;writing-mode:lr-tb;direction:ltr;text-anchor:start;display:none;fill:#000000;stroke-width:0.864053"
       id="text6"
       transform="matrix(0.9769286,-0.11703861,0.11499444,0.99429488,-23.09631,247.24617)"
       inkscape:label="logoText"><textPath
         xlink:href="#path5"
         id="textPath7"
         style="font-style:normal;font-variant:normal;font-weight:normal;font-stretch:normal;font-size:176.389px;font-family:Spectrashell;-inkscape-font-specification:Spectrashell;letter-spacing:14.5521px;fill:#000000;stroke-width:0.864053">ОБРАЗОВАНИЕ В КОЛЬЦЕ</textPath></text><path
       style="font-size:176.389px;font-family:Spectrashell;-inkscape-font-specification:Spectrashell;letter-spacing:14.5521px;stroke-width:0.864053"
       d="m 123.68082,301.75822 -5.53311,1.74613 -87.787029,-3.0995 -5.396191,-2.13201 0.342314,-9.69535 5.545564,-2.09869 87.787022,3.09949 5.38375,2.48457 z m -122.3254834,10.33046 18.1358794,11.23026 107.706574,3.80279 18.90764,-10.62835 1.32569,-37.54747 -18.11099,-11.93537 -107.706569,-3.80279 -18.8765223,9.74696 z m 0.9501887,34.36787 6.0259374,46.70876 19.6550513,7.60179 46.183946,-5.95823 17.082178,-12.34129 -3.024253,-23.44185 37.961805,-4.89748 1.76039,13.64525 23.62228,3.88865 -5.64226,-43.73479 z m 25.9187177,20.31037 40.585892,-5.23602 1.151022,8.92189 -4.932209,3.12622 -29.914601,3.85931 -5.739082,-1.74951 z m -13.564626,58.92592 6.623449,22.50532 58.886089,-17.33053 6.67325,22.67453 20.605975,4.41609 44.50299,-13.0975 14.92874,-14.87417 -13.2967,-45.17984 z m 126.089383,-3.27688 -4.5484,3.91279 -28.9354,8.51586 -5.77359,-0.87497 -2.539823,-8.62985 39.257393,-11.55369 z m -86.68566,109.90128 10.093926,20.98159 72.163944,-34.71699 51.52942,-42.21085 -12.92329,-26.86279 -65.06445,14.07645 -72.163945,34.71699 9.635111,20.02787 33.379798,-16.05851 6.729284,13.98772 z m 64.6399,-48.32237 30.65187,-7.89527 0.9941,2.06637 -24.91668,19.81663 -18.59732,8.94689 -6.72928,-13.98773 z m 43.30094,76.42648 12.85394,-0.92614 30.80042,-21.20567 9.55341,-18.78405 -17.40465,-25.27959 -22.88812,7.19207 12.10323,17.57949 -3.10346,5.13482 -24.84374,17.10457 -14.53538,-0.27189 -4.70423,15.87377 -27.16829,18.705 -5.90421,1.06683 -13.303559,-19.3229 -17.031802,16.0092 20.605506,29.92871 20.956455,-2.22156 36.03068,-24.80663 z m 67.28629,10.92572 -2.64876,5.16221 -63.92809,60.24423 -5.31016,2.33808 -6.65348,-7.06033 2.40682,-5.41895 63.92809,-60.24424 5.5521,-2.08133 z m -78.66273,94.24658 20.73716,-4.99992 78.43386,-73.91411 5.73658,-20.91776 -25.76711,-27.34273 -21.22105,4.48644 -78.43386,73.91411 -6.34144,20.27591 z m 72.07852,23.31615 -5.12372,2.98417 -9.2936,-7.01125 59.48942,-78.85475 7.60385,5.73648 -1.32179,5.85241 -18.16552,24.07886 -13.87647,4.33531 0.55305,16.54692 z m 42.17075,-29.83199 11.76179,-5.04684 22.521,-29.85216 3.12798,-20.84044 -39.42738,-29.74471 -87.21574,115.6067 40.97631,30.91325 19.46218,-8.51763 26.34531,-34.92139 z m 12.95366,96.63755 20.69702,10.66525 36.68202,-71.1852 15.69783,-64.73496 -26.49846,-13.65476 -43.45066,50.43382 -36.68201,71.18521 19.75625,10.18047 16.96745,-32.92708 13.79801,7.11017 z m 22.48001,-77.5114 19.70819,-24.76812 2.03834,1.05037 -7.94851,30.82792 -9.4533,18.34509 -13.79801,-7.11017 z m 62.27553,42.62716 13.12134,4.13792 -19.46942,61.7376 22.20535,7.00263 43.5542,-138.11056 -22.20535,-7.00262 -17.82486,56.52271 -13.12134,-4.13791 17.82486,-56.52271 -22.03713,-6.94958 -43.5542,138.11055 22.03713,6.94958 z m 78.26304,83.46559 21.67486,2.93182 19.41145,-143.5085 -22.37404,-3.02639 -23.37961,66.25577 -0.87398,-0.11822 9.22103,-68.1709 -22.19924,-3.00275 -19.41146,143.5085 20.27648,2.74266 27.52405,-75.84091 0.69918,0.0946 z m 87.46591,-82.6316 -19.04681,0.34927 -0.6662,-36.33003 15.34327,-0.28135 6.4576,-23.05284 -45.50072,0.83436 2.65508,144.79103 45.50072,-0.83436 -3.59812,-23.04486 -19.04681,0.34926 -0.76321,-41.6208 14.46146,-0.26519 z m 107.00839,37.34791 -0.70131,5.88778 -11.19302,3.20076 -27.15791,-94.97111 9.15793,-2.6188 3.87766,4.57838 8.29286,29.00011 -4.89113,13.69043 13.54611,9.51889 z m 1.56316,-51.63213 3.05002,-12.43011 -10.28121,-35.95335 -14.75881,-15.04279 -47.48555,13.57895 39.81543,139.23442 49.35106,-14.11241 4.91378,-20.66836 -12.02708,-42.05863 z m 55.23216,-101.71615 22.03245,57.28107 -1.65192,1.01777 -31.64357,-51.35946 -19.97313,12.30583 75.96309,123.29275 19.97313,-12.30583 -34.32681,-55.71451 1.65192,-1.01778 46.04036,48.49755 19.82295,-12.21331 L 736.40556,659.38637 711.4913,593.729 Z m 57.53563,-15.36599 5.05278,2.85196 57.65417,66.27342 2.12505,5.39894 -7.31935,6.36742 -5.31895,-2.62042 -57.65417,-66.27341 -1.85889,-5.63049 z m 91.04362,82.34865 -4.17125,-20.91959 -70.73634,-81.31136 -20.67307,-6.56394 -28.34585,24.65932 3.63893,21.38268 70.73635,81.31136 20.00766,7.14279 z m -76.10648,-129.57835 86.30003,86.80794 -6.22255,7.67141 20.16795,11.81654 16.88978,-20.82239 -86.88149,-86.3711 2.11122,-2.6028 94.65968,76.78184 14.66745,-18.0826 -112.4683,-91.22705 z m 146.72024,2.44673 -35.70202,-19.9999 4.39653,-7.84829 5.82353,0.43176 26.31485,14.74131 3.56364,4.82683 z m 8.69387,31.76016 23.01713,-41.08811 -11.24447,-17.82329 -40.62644,-22.75852 -21.07201,-0.28006 -11.55167,20.621 -53.39915,-29.91365 -11.46546,20.4671 z m 37.67883,-70.84869 17.59447,-49.71897 24.27749,8.59129 4.94296,-13.96787 -46.06074,-16.2999 -2.47147,6.98394 -114.73606,-40.60263 -7.76746,21.94951 114.73607,40.60262 -4.58987,12.97017 -114.73606,-40.60263 -7.70862,21.78322 z m -49.27918,-142.47252 -3.46508,18.73222 -35.72998,-6.60932 2.79132,-15.08985 -21.29677,-10.93535 -8.2777,44.7492 142.39959,26.34104 8.2777,-44.7492 -23.29901,-1.08098 -3.46508,18.73223 -40.93338,-7.57185 2.6309,-14.22261 z"
       id="text6-5"
       inkscape:label="logoPath"
       transform="matrix(0.9769286,-0.11703861,0.11499444,0.99429488,-23.094889,247.24998)"
       aria-label="ОБРАЗОВАНИЕ В КОЛЬЦЕ" /><g
       id="group-R5"
       transform="matrix(0.26458333,0,0,0.26458333,969.16348,-59.716529)"
       inkscape:label="group-book"><path
         id="path8-5"
         d="m -998.95045,2712.8974 -22.92605,-5.9566 c -1.0235,-0.2663 -104.4364,-26.6516 -247.3351,-28.8623 -131.1493,-2.0471 -323.3801,16.4167 -494.8138,116.0017 l -9.3341,5.4245 -9.2729,-5.5473 c -175.4047,-105.0095 -367.2671,-123.1866 -497.3315,-119.9525 -141.7526,3.521 -243.0775,32.5059 -244.0805,32.7924 l -23.4378,6.8165 V 2689.214 1502.2177 c -31.0934,9.8664 -53.9376,18.832 -66.3218,24.011 v 1307.1124 c 42.5768,-16.7034 134.1993,-47.9196 253.9264,-62.0642 96.4327,-11.3607 191.0436,-9.1294 281.1718,6.6527 109.0419,19.1186 211.7588,58.1748 305.4894,116.2064 93.7309,-58.0316 196.4272,-97.0878 305.4897,-116.2064 90.1281,-15.7821 184.7389,-18.0338 281.1715,-6.6527 119.7273,14.1446 211.34963,45.3608 253.92652,62.0642 V 1526.2287 c -12.38405,-5.179 -35.2488,-14.1446 -66.32177,-24.011 v 1210.6797"
         style="fill:#040606;fill-opacity:1;fill-rule:nonzero;stroke:none;stroke-width:0.204696"
         inkscape:label="back-body" /><path
         id="path9"
         d="M -1791.5367,2746.6928 V 1445.9875 c -78.4807,-48.5542 -164.4534,-81.3466 -255.7277,-97.4358 -75.8811,-13.3872 -155.6105,-15.3523 -236.9981,-5.8543 -112.7879,13.1415 -197.8601,44.9925 -226.579,56.8648 v 1266.0706 c 38.6058,-9.0885 121.8151,-25.4643 228.8511,-28.2277 9.498,-0.2456 19.3438,-0.3888 29.4559,-0.3888 126.5437,0 298.5299,21.0632 460.9978,109.6765"
         style="fill:#040606;fill-opacity:1;fill-rule:nonzero;stroke:none;stroke-width:0.204696"
         sodipodi:nodetypes="ccccccssc"
         inkscape:label="left-page" /><path
         id="path10"
         d="M -1035.5911,2666.247 V 1399.5622 c -28.7395,-11.8723 -113.791,-43.7233 -226.5994,-56.8648 -81.367,-9.498 -161.117,-7.5329 -236.9981,5.8543 -91.2744,16.0892 -177.2264,48.8816 -255.7073,97.4358 v 1301.1762 c 171.6998,-90.6398 358.1991,-107.7935 487.2809,-105.7056 108.4279,1.7809 193.2338,16.6419 232.0239,24.7889"
         style="fill:#040606;fill-opacity:1;fill-rule:nonzero;stroke:none;stroke-width:0.204696"
         inkscape:label="right-page" /></g><g
       id="group-R5-0"
       transform="matrix(-0.10328808,0.3248595,-0.3248595,-0.10328808,737.24057,416.12207)"
       style="fill:#ffffff"
       inkscape:label="group-Pen"><path
         id="path2"
         d="M 30.176328,495.18245 9.8605718,593.8461 108.52018,573.5275 137.77292,496.98602 106.71781,465.93015 Z M 0,603.70667 23.514405,489.51662 108.6237,456.99246 146.71182,495.07878 114.18601,580.18942 0,603.70667"
         style="fill:#ffffff;fill-opacity:1;fill-rule:nonzero;stroke:none;stroke-width:0.14981"
         inkscape:label="pen-writerBody" /><path
         id="path3"
         d="m 2.219068,601.48819 c -1.49869075,-1.49986 -1.49869075,-3.92375 0,-5.42361 l 55.131386,-55.1315 c 1.498105,-1.49811 3.923837,-1.49811 5.422541,0 1.498105,1.4993 1.498105,3.92383 0,5.42314 L 7.6415038,601.48819 c -1.4986892,1.4981 -3.9243309,1.4981 -5.4224358,0"
         style="fill:#ffffff;fill-opacity:1;fill-rule:nonzero;stroke:none;stroke-width:0.14981"
         inkscape:label="pen-writerLine" /><path
         id="path4-3"
         d="m 75.524415,528.18285 c -3.029018,-3.02961 -7.954039,-3.02961 -10.983656,0 -3.02782,3.02902 -3.02782,7.95344 0,10.98246 3.02722,3.02602 7.951791,3.02602 10.98066,-0.003 3.029617,-3.02902 3.029617,-7.95344 0.003,-10.97947 z M 59.118368,544.5871 c -6.018187,-6.01818 -6.014592,-15.81145 0,-21.82724 6.01579,-6.01639 15.809651,-6.01998 21.828438,0 6.015191,6.01579 6.013543,15.80906 -0.0022,21.8244 -6.01654,6.01639 -15.810401,6.01923 -21.826191,0.003"
         style="fill:#ffffff;fill-opacity:1;fill-rule:nonzero;stroke:none;stroke-width:0.14981"
         inkscape:label="pen-writerRing" /><path
         id="path5-0"
         d="M 825.035,1138.61 1138.59,825.059 C 1178.9,784.738 784.727,1178.93 825.035,1138.61 Z M 1102.4,788.859 788.84,1102.42 c -60.27,60.26 -60.231,158.35 0.039,218.62 L 3661.13,4193.29 c 10,10.01 26.19,10.01 36.19,0 l 495.97,-495.96 c 10,-10.01 10,-26.19 0,-36.2 L 1321.04,788.879 c -60.27,-60.27 -158.38,-60.289 -218.64,-0.02"
         style="fill:#ffffff;fill-opacity:1;fill-rule:nonzero;stroke:none"
         transform="matrix(0.13333333,0,0,-0.13333333,0,603.70667)"
         sodipodi:nodetypes="cccccsccccsc"
         inkscape:label="pen-body" /><path
         id="path6"
         d="m 3715.42,4175.2 459.77,-459.78 36.59,36.59 c 41.41,41.41 41.41,108.78 0,150.2 l -309.6,309.59 c -41.39,41.39 -108.76,41.39 -150.17,-0.02 z m 441.67,-514.07 -495.96,495.97 c -10,10 -10,26.19 0,36.19 l 54.68,54.69 c 61.37,61.36 161.2,61.38 222.57,0.02 l 309.59,-309.6 c 61.37,-61.36 61.37,-161.22 0,-222.59 l -54.68,-54.68 c -10,-10 -26.19,-10 -36.2,0"
         style="fill:#ffffff;fill-opacity:1;fill-rule:nonzero;stroke:none"
         transform="matrix(0.13333333,0,0,-0.13333333,0,603.70667)"
         inkscape:label="pen-upper" /><path
         id="path7"
         d="m 3972.26,4225.64 253.37,-253.37 199.08,199.07 c 69.23,69.23 69.21,181.87 -0.01,251.09 l -2.28,2.28 c -69.23,69.24 -181.85,69.24 -251.08,0 z m 235.28,-307.67 -289.57,289.57 c -10.01,10 -10.01,26.19 0,36.19 l 217.17,217.18 c 89.18,89.19 234.29,89.19 323.47,0 l 2.28,-2.28 c 89.19,-89.18 89.2,-234.3 0.02,-323.49 l -217.18,-217.17 c -10,-10 -26.19,-10 -36.19,0"
         style="fill:#ffffff;fill-opacity:1;fill-rule:nonzero;stroke:none"
         transform="matrix(0.13333333,0,0,-0.13333333,0,603.70667)"
         inkscape:label="pen-clicker" /></g></g></svg>
