<svg width="266" height="40" viewBox="0 0 266 40" fill="none" xmlns="http://www.w3.org/2000/svg">
<path d="M186.758 25.884L182.808 25.829C181.922 25.8167 181.21 25.0744 181.21 24.1627V19.9872C181.21 16.7426 183.5 14.0903 186.758 14.0903C190.016 14.0903 192.307 16.7426 192.307 19.9872C192.307 23.2317 190.016 25.884 186.758 25.884Z" fill="#0066FF"/>
<path d="M117.57 14.0388H120.828C122.228 14.0388 123.169 14.7598 123.169 16.1504C123.169 17.5666 122.253 18.2619 120.828 18.2619H117.57V14.0388Z" fill="#0066FF"/>
<path d="M117.57 21.0944H121.337C123.093 21.0944 124.187 22.0472 124.187 23.5665C124.187 25.0085 123.067 25.9355 121.311 25.9355H117.57V21.0944Z" fill="#0066FF"/>
<path d="M221.24 22.0472C223.047 16.3564 223.454 14.5796 223.556 13.3951C223.683 14.6826 224.142 16.3306 225.974 22.0472H221.24Z" fill="#0066FF"/>
<path fill-rule="evenodd" clip-rule="evenodd" d="M109.685 0C102.526 0 96.7227 5.96954 96.7227 13.3333V38.3333C96.7227 39.2538 97.4481 40 98.343 40H253.037C260.196 40 266 34.0305 266 26.6667V13.3333C266 5.96954 260.196 0 253.037 0H109.685ZM186.758 29.3861C192.103 29.3861 195.997 25.3947 195.997 19.9872C195.997 14.5796 192.103 10.5883 186.758 10.5883C181.439 10.5883 177.519 14.5538 177.519 19.9872V26.053C177.519 27.894 178.97 29.3861 180.76 29.3861H186.758ZM148.986 25.7553V12.4938C148.986 11.4638 148.146 10.614 147.128 10.614C146.11 10.614 145.27 11.4638 145.27 12.4938V25.7553H139.492V12.4938C139.492 11.4638 138.652 10.614 137.66 10.614C136.642 10.614 135.802 11.4638 135.802 12.4938V26.914C135.802 28.356 136.591 29.1286 137.991 29.1286H156.265C157.69 29.1286 158.454 28.356 158.454 26.914V12.4938C158.454 11.4638 157.614 10.614 156.621 10.614C155.603 10.614 154.763 11.4638 154.763 12.4938V25.7553H148.986ZM121.311 29.1286C125.664 29.1286 127.903 26.7853 127.903 23.6437C127.903 21.3777 126.529 19.5752 124.544 19.2147C125.791 18.8027 126.885 17.6439 126.885 15.4036C126.885 12.4681 124.696 10.8458 120.828 10.8458L113.879 10.8457V27.1715C113.879 28.4333 114.567 29.1286 115.814 29.1286H121.311ZM175.364 12.3136C175.364 12.7513 175.185 13.2148 174.753 13.7041L169.255 19.7554L174.651 26.296C174.982 26.708 175.135 27.1458 175.135 27.5578C175.135 28.5105 174.346 29.3088 173.302 29.3088C172.793 29.3088 172.208 29.0771 171.648 28.356L165.437 20.4764C165.565 21.8669 165.59 23.1287 165.59 27.429C165.59 28.665 164.674 29.2831 163.758 29.2831C162.841 29.2831 161.9 28.665 161.9 27.429V12.5453C161.9 11.3093 162.841 10.6913 163.758 10.6913C164.674 10.6913 165.59 11.3093 165.59 12.5453C165.59 16.6911 165.565 17.8241 165.437 19.0087L171.928 11.5925C172.437 11.0003 173.022 10.6655 173.582 10.6655C174.498 10.6655 175.364 11.3865 175.364 12.3136ZM200.523 13.0603C200.624 11.6183 201.337 10.8458 202.737 10.8458H211.085C212.485 10.8458 213.274 11.6183 213.274 13.0603V27.4548C213.274 28.4848 212.434 29.3603 211.416 29.3603C210.423 29.3603 209.583 28.5105 209.583 27.4805V14.2191H204.086L203.399 22.9485C203.144 26.2188 201.846 28.4848 199.403 29.1801C199.225 29.2316 199.046 29.2573 198.868 29.2573C197.85 29.2573 197.087 28.4075 197.087 27.429C197.087 26.7338 197.545 26.0385 198.156 25.8068C199.174 25.4205 199.632 24.545 199.759 22.897L200.523 13.0603ZM226.407 12.5968C225.999 11.4895 225.185 10.6913 224.116 10.6913H223.123C222.182 10.6913 221.342 11.541 220.96 12.5968L215.895 26.8625C215.793 27.12 215.768 27.3518 215.768 27.5835C215.768 28.6651 216.735 29.3088 217.626 29.3088C218.364 29.3088 219 28.9226 219.306 28.0213C219.471 27.4943 219.636 26.993 219.795 26.511L219.795 26.5093L219.796 26.507L219.797 26.5039C219.956 26.0227 220.108 25.5607 220.247 25.1115H226.967C227.264 25.965 227.562 26.892 227.884 27.8924L227.908 27.9698C228.188 28.8453 228.825 29.3088 229.614 29.3088C230.581 29.3088 231.624 28.562 231.624 27.4548C231.624 27.223 231.573 26.9913 231.497 26.7595L226.407 12.5968ZM248.844 12.3136C248.844 12.7771 248.665 13.2921 248.233 13.8071L243.321 19.7554L248.309 26.0385C248.665 26.502 248.818 26.9655 248.818 27.4033C248.818 28.4333 247.927 29.2573 246.935 29.2573C246.349 29.2573 245.764 28.9741 245.306 28.3818L245.175 28.2101C242.885 25.1949 241.458 23.3176 241.234 22.4077C241.055 23.2317 239.757 24.9312 237.059 28.3818C236.525 29.0771 235.889 29.4118 235.278 29.4118C234.336 29.4118 233.547 28.6908 233.547 27.6865C233.547 27.1715 233.751 26.605 234.234 25.987L239.045 19.9357L234.183 13.7813C233.802 13.3178 233.649 12.8543 233.649 12.4166C233.649 11.4123 234.565 10.6655 235.583 10.6655C236.118 10.6655 236.754 10.923 237.212 11.541C239.885 15.0431 241.03 16.5624 241.259 17.2834C241.437 16.5881 242.557 15.1461 245.255 11.747C245.866 11.0003 246.451 10.6913 247.087 10.6913C248.055 10.6913 248.844 11.3865 248.844 12.3136Z" fill="#0066FF"/>
<path fill-rule="evenodd" clip-rule="evenodd" d="M76.5654 31.7698H57.321C56.5146 31.7698 55.8548 31.0849 55.8548 30.2479C55.8548 29.4108 56.5146 28.726 57.321 28.726H76.5654C77.3751 28.726 78.0316 29.4074 78.0316 30.2479C78.0316 31.0885 77.3751 31.7698 76.5654 31.7698ZM80.8088 36.9395H51.9019C51.366 36.9395 50.9349 36.921 50.5759 36.8847C50.2166 36.8483 49.9296 36.7943 49.682 36.7232C49.5416 36.6828 49.4141 36.637 49.2933 36.586C49.1725 36.5348 49.0585 36.4783 48.9452 36.4167C48.9383 36.4131 48.9315 36.4093 48.9247 36.4057C48.9177 36.4019 48.9109 36.3981 48.9042 36.3942C48.5836 36.2164 48.2977 35.997 48.0492 35.7389C47.8005 35.4807 47.589 35.184 47.4176 34.8514C47.4139 34.8444 47.4104 34.8372 47.4068 34.8301C47.4031 34.8229 47.3996 34.8158 47.396 34.8088C47.3366 34.6911 47.2821 34.5727 47.233 34.4475C47.1837 34.3222 47.1397 34.1898 47.1009 34.0439C47.0323 33.7869 46.9801 33.4889 46.9453 33.1163C46.9103 32.7436 46.8923 32.2961 46.8923 31.7397V6.22518V6.21833L46.8925 6.21167C46.8934 5.91052 46.9299 5.6225 46.9977 5.3516C47.0655 5.08089 47.165 4.82731 47.2922 4.59465C47.4203 4.36027 47.5767 4.1474 47.7576 3.95982C47.9383 3.77225 48.1434 3.60978 48.3692 3.47681C48.595 3.34383 48.8413 3.24015 49.1043 3.16957C49.3673 3.099 49.6472 3.0619 49.9399 3.0619H77.7612C78.5931 3.0619 79.3471 3.40794 79.8971 3.96857C80.447 4.52939 80.7928 5.30519 80.8082 6.16468C80.8243 7.051 80.4697 7.85704 79.8975 8.44126C79.3251 9.02567 78.5355 9.38845 77.6814 9.38845H54.8202C54.3142 9.38845 53.856 9.60133 53.5245 9.94566C53.1927 10.2898 52.9874 10.7654 52.9874 11.2908V21.1596C52.9874 21.6849 53.1927 22.1605 53.5245 22.5046C53.856 22.8489 54.3142 23.062 54.8202 23.062H75.7678C76.6443 23.062 77.2412 23.1092 77.6994 23.2011C78.1576 23.2928 78.4767 23.4292 78.7971 23.607C79.1134 23.7826 79.4004 24.0042 79.6506 24.2639C79.901 24.5238 80.1145 24.8217 80.2836 25.15C80.455 25.4826 80.5863 25.8138 80.6748 26.2892C80.7633 26.7648 80.8088 27.3846 80.8088 28.2943V36.9395ZM80.2392 20.9541C79.6784 20.6429 79.1201 20.4044 78.3183 20.2436C77.5166 20.0828 76.4716 20.0001 74.9379 20.0001H55.8893V12.4138H77.7798C79.4312 12.4138 80.9262 11.719 82.0082 10.5959C83.0903 9.47271 83.7597 7.92094 83.7597 6.20689C83.7597 4.49304 83.0903 2.94127 82.0082 1.8181C80.9262 0.694749 79.4312 0 77.7798 0H49.9246C48.2745 0 46.7806 0.693798 45.6987 1.81544C44.6168 2.93708 43.9468 4.48695 43.9447 6.19909V30.8433C43.9447 32.4354 44.0246 33.5199 44.1793 34.3522C44.3342 35.1843 44.564 35.764 44.8639 36.3459C45.1637 36.928 45.5338 37.4474 45.9689 37.899C46.4042 38.3508 46.9045 38.7347 47.4652 39.046C48.026 39.3572 48.5845 39.5957 49.3861 39.7565C50.1878 39.9172 51.2329 40 52.7665 40H83.7597V29.1568C83.7597 27.5647 83.6798 26.4802 83.5251 25.6481C83.3702 24.8158 83.1404 24.2361 82.8405 23.6542C82.5407 23.0722 82.1706 22.5527 81.7355 22.1011C81.3004 21.6495 80.7999 21.2654 80.2392 20.9541ZM22.9071 11.2908V33.7456C22.9071 34.6178 22.5632 35.4242 22.0094 36.0086C21.4555 36.5931 20.6916 36.9553 19.8512 36.9389C19.0366 36.9229 18.3013 36.5698 17.7697 36.0083C17.2381 35.4467 16.9102 34.6766 16.9102 33.8272V11.2908C16.9102 10.7654 16.7051 10.2898 16.3733 9.94566C16.0418 9.60133 15.5834 9.38845 15.0774 9.38845H2.95049V8.33035C2.95049 7.45487 2.99722 6.84326 3.08776 6.36538C3.17849 5.8875 3.31301 5.54317 3.4886 5.20246C3.66198 4.86593 3.881 4.5604 4.13741 4.29407C4.39418 4.02774 4.68835 3.8004 5.01257 3.62063C5.341 3.43838 5.67256 3.29855 6.13296 3.20458C6.59354 3.11041 7.18278 3.0619 8.02623 3.0619H33.7352C34.5818 3.0619 35.3688 3.42126 35.9423 4.00034C36.5156 4.57943 36.875 5.37805 36.8668 6.25675C36.8585 7.1172 36.5119 7.90022 35.9599 8.46789C35.4078 9.03575 34.6502 9.38845 33.8194 9.38845H24.7399C24.2337 9.38845 23.7755 9.60133 23.4439 9.94566C23.1122 10.2898 22.9071 10.7654 22.9071 11.2908ZM33.8351 0H8.8218C7.28811 0 6.24305 0.0829438 5.44139 0.243695C4.63972 0.404256 4.08127 0.642814 3.52044 0.954043C2.95978 1.26546 2.45943 1.64936 2.02414 2.10099C1.58903 2.5528 1.21899 3.07215 0.919147 3.65409C0.619302 4.23622 0.389469 4.81587 0.234598 5.64797C0.0799099 6.48008 0 7.56481 0 9.15672V12.4138H13.9353V33.8011C13.9353 35.5129 14.6037 37.0627 15.6845 38.1844C16.7653 39.3062 18.2583 40 19.9075 40C21.5566 40 23.0498 39.3062 24.1304 38.1844C25.2112 37.0627 25.8796 35.5129 25.8796 33.8011V12.4138H33.8351C35.4864 12.4138 36.9812 11.719 38.0635 10.5959C39.1456 9.47271 39.8149 7.92094 39.8149 6.20689C39.8149 4.49304 39.1456 2.94127 38.0635 1.8181C36.9812 0.694749 35.4864 0 33.8351 0Z" fill="#0066FF"/>
</svg>
